<svg width="30" height="30" viewBox="0 0 24 25" fill="none" xmlns="http://www.w3.org/2000/svg">
<path fill-rule="evenodd" clip-rule="evenodd" d="M18 17.5944L14.5873 14.1817C15.1912 13.382 15.5493 12.3862 15.5493 11.3069C15.5493 8.66992 13.4116 6.53223 10.7747 6.53223C8.13769 6.53223 6 8.66992 6 11.3069C6 13.9439 8.13769 16.0816 10.7747 16.0816C11.854 16.0816 12.8497 15.7234 13.6494 15.1195L17.0622 18.5322L18 17.5944ZM14.223 11.3069C14.223 13.2114 12.6792 14.7553 10.7747 14.7553C8.87018 14.7553 7.32629 13.2114 7.32629 11.3069C7.32629 9.40245 8.87018 7.85856 10.7747 7.85856C12.6792 7.85856 14.223 9.40245 14.223 11.3069Z" fill="currentColor"/>
</svg>